<svg xmlns="http://www.w3.org/2000/svg" viewBox="0 0 64 64"><defs><style>.cls-1{fill:#ffb74d;}.cls-2{fill:#ef9014;}.cls-3{fill:#ff969f;}.cls-4{fill:#e21b4d;}</style></defs><title>Piggy Bank</title><g id="Layer_2" data-name="Layer 2"><g id="Layer_1-2" data-name="Layer 1"><circle class="cls-1" cx="34" cy="12" r="12"/><circle class="cls-2" cx="34" cy="12" r="8"/><path class="cls-3" d="M64,36c0-13.25-13.43-24-30-24a35.64,35.64,0,0,0-15.56,3.48,20.35,20.35,0,0,0-9.71-1.77A2,2,0,0,0,7,16.45l2.36,5.89A22.61,22.61,0,0,0,5.71,28H4a4,4,0,0,0-4,4v8a4,4,0,0,0,4,4H5.71a24.54,24.54,0,0,0,8.39,10l-1.82,4.56a4,4,0,1,0,7.43,3l1.51-3.77a36.88,36.88,0,0,0,25.56,0l1.51,3.77a4,4,0,0,0,7.43-3L53.89,54C60.09,49.56,64,43.15,64,36Z"/><circle class="cls-4" cx="13" cy="29" r="3"/></g></g></svg>